<svg role="img" viewBox="-0.76 -0.51 42.43 47.04" xmlns="http://www.w3.org/2000/svg"><title>AppsFlyer</title>
  <g transform="translate(-36.247911,-141.55204)" fill="#000">
    <path d="m 36.442826,156.07772 6.791724,12.93017 c 0.459059,0.88278 1.60082,1.59494 2.548365,1.59494 l 13.848292,-0.0299 c 0.941664,-0.004 1.330096,-0.71801 0.871037,-1.60084 L 53.71052,156.04193 c -0.464945,-0.88283 -1.600825,-1.59495 -2.54837,-1.59495 l -13.848287,0.0299 h -0.06475 c -0.894578,0.0342 -1.25947,0.74155 -0.806296,1.60084"/>
    <path d="m 62.744574,171.14425 4.113875,7.66867 c 0.276622,0.52378 0.959316,0.94164 1.524313,0.93578 l 8.2513,-0.0884 c 0.559108,-0.004 0.78864,-0.4355 0.512026,-0.95342 l -4.113879,-7.66863 c -0.276622,-0.52378 -0.965201,-0.94168 -1.524313,-0.93579 l -8.251296,0.0824 h -0.02947 c -0.541457,0.0256 -0.759214,0.44139 -0.482601,0.95932"/>
    <path d="m 62.791656,142.02342 -8.245415,10.58779 c -0.564993,0.72391 -0.641505,2.01869 -0.170662,2.89563 l 6.897662,12.87132 c 0.47083,0.87688 1.306551,1.00638 1.871549,0.2823 l 8.251295,-10.58779 c 0.559113,-0.72391 0.635625,-2.0187 0.164812,-2.90148 l -6.897662,-12.86543 c -0.270729,-0.51203 -0.665046,-0.76512 -1.059369,-0.75333 -0.288366,0.0128 -0.576768,0.16486 -0.81218,0.47082"/>
    <path d="m 60.86125,171.27374 -4.91429,6.30914 c -0.335474,0.42964 -0.382538,1.20061 -0.100065,1.72439 l 4.107994,7.66867 c 0.282516,0.52378 0.782755,0.60031 1.11822,0.17084 l 4.91429,-6.30914 c 0.329581,-0.4296 0.376645,-1.20647 0.100066,-1.73029 l -4.11388,-7.66863 c -0.158917,-0.30024 -0.394326,-0.45318 -0.62973,-0.44732 -0.170663,0.004 -0.341368,0.0999 -0.482605,0.2823"/>
  </g>
</svg>
